#!OML:ASF H:\GeneralSubjects\Female5\Project 1\Capture day 1\Session 1\Female5.ASF
:FULLY-SPECIFIED
:DEGREES
162
root -22.1269 15.8008 6.33092 -172.468 -17.5512 -173.986
lowerback 5.56376 0.518104 1.538
upperback -9.03254 0.657473 4.86112
thorax -13.0077 0.156457 4.44487
lowerneck -9.03382 -2.52944 -3.92434
upperneck 27.266 -6.92443 7.21209
head 10.5931 -3.55547 2.29257
rclavicle 2.97183e-014 -7.39479e-014
rhumerus -26.5519 -24.1886 -5.97153
rradius 131.217
rwrist 13.5216
rhand -46.6254 -14.0558
rfingers 7.12502
rthumb -19.3472 -43.1133
lclavicle 2.97183e-014 -7.39479e-014
lhumerus -16.1182 25.188 25.5524
lradius 137.346
lwrist -34.7618
lhand -45.8801 72.9682
lfingers 7.12502
lthumb -18.6303 -102.096
rfemur 7.41977 44.0285 42.3573
rtibia -9.69784
rfoot -53.1166 -40.5319
rtoes 26.7503
lfemur -10.3243 -21.2227 -2.48556
ltibia 12.3278
lfoot -22.4631 19.5666
ltoes -67.4561
163
root -22.1247 15.8001 6.33414 -172.457 -17.8324 -173.989
lowerback 5.63131 0.42512 1.47922
upperback -9.06257 0.531526 5.01401
thorax -13.0823 0.10821 4.67466
lowerneck -9.14174 -2.53101 -3.83611
upperneck 27.2406 -6.90938 7.15462
head 10.599 -3.53827 2.25701
rclavicle -9.44227e-015 7.95139e-016
rhumerus -26.5046 -24.1686 -5.35353
rradius 131.098
rwrist 13.5651
rhand -46.5172 -13.5098
rfingers 7.12502
rthumb -19.2431 -42.5777
lclavicle -9.44227e-015 7.95139e-016
lhumerus -16.6396 25.2396 25.1771
lradius 137.047
lwrist -35.8861
lhand -45.4463 71.9751
lfingers 7.12502
lthumb -18.2131 -101.142
rfemur 7.29546 43.7037 42.2647
rtibia -9.70087
rfoot -52.984 -40.5178
rtoes 26.7744
lfemur -10.5929 -21.2911 -2.43673
ltibia 12.4875
lfoot -22.3165 19.4243
ltoes -67.5188
164
root -22.123 15.7995 6.33943 -172.455 -18.0785 -174.016
lowerback 5.72433 0.352295 1.462
upperback -9.08513 0.438571 5.11865
thorax -13.1639 0.0706785 4.82205
lowerneck -9.20487 -2.48954 -3.81196
upperneck 27.2674 -6.84745 7.14093
head 10.6159 -3.50549 2.25483
rclavicle 1.73937e-014 -7.95139e-015
rhumerus -26.479 -24.1548 -4.89279
rradius 131.008
rwrist 13.6028
rhand -46.3957 -12.8757
rfingers 7.12502
rthumb -19.1262 -41.9553
lclavicle 1.73937e-014 -7.95139e-015
lhumerus -17.0065 25.224 24.8618
lradius 136.854
lwrist -36.3985
lhand -45.2504 71.3872
lfingers 7.12502
lthumb -18.0245 -100.572
rfemur 7.19241 43.4024 42.1527
rtibia -9.70609
rfoot -52.8337 -40.5355
rtoes 26.8559
lfemur -10.8387 -21.3113 -2.43317
ltibia 12.6682
lfoot -22.1426 19.2821
ltoes -67.5544
165
root -22.1208 15.7991 6.34653 -172.459 -18.2768 -174.07
lowerback 5.8423 0.293331 1.45439
upperback -9.09694 0.36741 5.19538
thorax -13.249 0.0425352 4.92941
lowerneck -9.20955 -2.41681 -3.86376
upperneck 27.3073 -6.7345 7.14002
head 10.6252 -3.45848 2.27782
rclavicle 1.61016e-014 -4.05521e-014
rhumerus -26.421 -24.1435 -4.6157
rradius 130.944
rwrist 13.6388
rhand -46.2652 -12.1288
rfingers 7.12502
rthumb -19.0008 -41.2208
lclavicle 1.61016e-014 -4.05521e-014
lhumerus -17.2372 25.2333 24.576
lradius 136.824
lwrist -36.2087
lhand -45.2974 71.2928
lfingers 7.12502
lthumb -18.0698 -100.473
rfemur 7.10665 43.1389 42.0199
rtibia -9.71475
rfoot -52.6747 -40.5755
rtoes 26.9819
lfemur -11.0567 -21.2811 -2.46599
ltibia 12.8564
lfoot -22.0269 19.0755
ltoes -67.5183
166
root -22.1174 15.7991 6.35508 -172.468 -18.4197 -174.148
lowerback 5.98476 0.250339 1.43744
upperback -9.09587 0.319235 5.25372
thorax -13.3356 0.0266629 5.01765
lowerneck -9.16534 -2.32898 -3.95914
upperneck 27.3374 -6.58375 7.11726
head 10.6189 -3.40216 2.30611
rclavicle -1.16289e-014 2.8625e-014
rhumerus -26.3138 -24.1341 -4.49369
rradius 130.89
rwrist 13.6637
rhand -46.1298 -11.2313
rfingers 7.12502
rthumb -18.8706 -40.336
lclavicle -1.16289e-014 2.8625e-014
lhumerus -17.3925 25.1938 24.3554
lradius 136.847
lwrist -36.0158
lhand -45.3873 71.149
lfingers 7.12502
lthumb -18.1563 -100.322
rfemur 7.03091 42.9245 41.8742
rtibia -9.71954
rfoot -52.5202 -40.6234
rtoes 27.1044
lfemur -11.2435 -21.2022 -2.52084
ltibia 13.0372
lfoot -21.9797 18.8091
ltoes -67.3803
167
root -22.1127 15.7994 6.36448 -172.473 -18.5061 -174.244
lowerback 6.14137 0.231845 1.40854
upperback -9.08102 0.304639 5.29035
thorax -13.417 0.0280501 5.08207
lowerneck -9.05456 -2.23168 -4.17559
upperneck 27.3205 -6.43352 7.23393
head 10.5902 -3.34586 2.40629
rclavicle 1.02374e-014 3.97569e-015
rhumerus -26.2017 -24.1273 -4.45482
rradius 130.855
rwrist 13.6762
rhand -46.0252 -10.3598
rfingers 7.12502
rthumb -18.7699 -39.4742
lclavicle 1.02374e-014 3.97569e-015
lhumerus -17.4588 25.1338 24.2047
lradius 136.889
lwrist -35.9326
lhand -45.4798 71.0143
lfingers 7.12502
lthumb -18.2453 -100.179
rfemur 6.95483 42.7641 41.7164
rtibia -9.71659
rfoot -52.3806 -40.6615
rtoes 27.207
lfemur -11.3982 -21.0817 -2.58904
ltibia 13.195
lfoot -21.9465 18.552
ltoes -67.193
168
root -22.1076 15.8002 6.37437 -172.47 -18.5446 -174.344
lowerback 6.30098 0.242268 1.38473
upperback -9.05341 0.330589 5.30396
thorax -13.4879 0.0477859 5.10967
lowerneck -8.95835 -2.14892 -4.42845
upperneck 27.291 -6.31518 7.42101
head 10.565 -3.29948 2.53387
rclavicle 2.98177e-016 6.20208e-014
rhumerus -26.1133 -24.128 -4.44598
rradius 130.836
rwrist 13.6854
rhand -45.9649 -9.61524
rfingers 7.12502
rthumb -18.7119 -38.7352
lclavicle 2.98177e-016 6.20208e-014
lhumerus -17.4315 25.0604 24.1281
lradius 136.963
lwrist -35.9203
lhand -45.5875 70.8732
lfingers 7.12502
lthumb -18.3489 -100.028
rfemur 6.86561 42.6528 41.5534
rtibia -9.69753
rfoot -52.2589 -40.677
rtoes 27.2254
lfemur -11.5277 -20.9326 -2.65787
ltibia 13.325
lfoot -21.8683 18.3715
ltoes -67.087
169
root -22.103 15.8018 6.38442 -172.463 -18.552 -174.42
lowerback 6.45552 0.283157 1.40548
upperback -9.01349 0.40303 5.29201
thorax -13.5435 0.084048 5.07355
lowerneck -8.94467 -2.10311 -4.61243
upperneck 27.2707 -6.25087 7.58335
head 10.5605 -3.26933 2.63291
rclavicle -6.2319e-014 5.88403e-014
rhumerus -26.0824 -24.1421 -4.4387
rradius 130.835
rwrist 13.7211
rhand -45.9651 -9.08083
rfingers 7.12502
rthumb -18.7121 -38.2008
lclavicle -6.2319e-014 5.88403e-014
lhumerus -17.3029 24.9788 24.1228
lradius 137.064
lwrist -35.9545
lhand -45.7065 70.7166
lfingers 7.12502
lthumb -18.4633 -99.8604
rfemur 6.76302 42.5766 41.4131
rtibia -9.66361
rfoot -52.1679 -40.6565
rtoes 27.1572
lfemur -11.6422 -20.7606 -2.70002
ltibia 13.4324
lfoot -21.6578 18.3495
ltoes -67.0768
170
root -22.0994 15.8043 6.39411 -172.451 -18.5439 -174.452
lowerback 6.59461 0.356386 1.50084
upperback -8.96093 0.527331 5.24907
thorax -13.5762 0.135674 4.94888
lowerneck -9.05676 -2.11498 -4.67407
upperneck 27.255 -6.26376 7.68352
head 10.5832 -3.26178 2.67733
rclavicle 4.77083e-015 1.59028e-014
rhumerus -26.1465 -24.1761 -4.40257
rradius 130.85
rwrist 13.8054
rhand -46.0508 -8.90185
rfingers 7.12502
rthumb -18.7946 -38.0139
lclavicle 4.77083e-015 1.59028e-014
lhumerus -17.0638 24.8895 24.1879
lradius 137.172
lwrist -36.0294
lhand -45.8245 70.5663
lfingers 7.12502
lthumb -18.5769 -99.6993
rfemur 6.65899 42.5204 41.3167
rtibia -9.63709
rfoot -52.1168 -40.6013
rtoes 27.1002
lfemur -11.7487 -20.5797 -2.69703
ltibia 13.518
lfoot -21.3164 18.4819
ltoes -67.3088
171
root -22.0966 15.8083 6.40335 -172.438 -18.5316 -174.443
lowerback 6.72229 0.460905 1.67206
upperback -8.89886 0.702383 5.17371
thorax -13.5912 0.201993 4.73387
lowerneck -9.33801 -2.20147 -4.55357
upperneck 27.2572 -6.36197 7.63448
head 10.6429 -3.28115 2.62367
rclavicle -9.93923e-015 -2.78299e-014
rhumerus -26.3299 -24.227 -4.32264
rradius 130.882
rwrist 13.9345
rhand -46.2243 -9.14513
rfingers 7.12502
rthumb -18.9614 -38.2409
lclavicle -9.93923e-015 -2.78299e-014
lhumerus -16.7228 24.7901 24.3155
lradius 137.271
lwrist -36.1229
lhand -45.9335 70.4332
lfingers 7.12502
lthumb -18.6817 -99.5561
rfemur 6.56636 42.4711 41.2673
rtibia -9.63634
rfoot -52.0996 -40.5252
rtoes 27.0898
lfemur -11.8493 -20.4183 -2.65196
ltibia 13.5805
lfoot -20.9431 18.6682
ltoes -67.6266
172
root -22.0941 15.8139 6.41288 -172.425 -18.5219 -174.405
lowerback 6.86108 0.586854 1.89002
upperback -8.83641 0.912699 5.08121
thorax -13.6121 0.279499 4.46648
lowerneck -9.74485 -2.34753 -4.34246
upperneck 27.2594 -6.52682 7.50121
head 10.7271 -3.32332 2.51357
rclavicle 3.83654e-014 -1.59028e-015
rhumerus -26.5993 -24.2907 -4.22569
rradius 130.918
rwrist 14.0783
rhand -46.4495 -9.58183
rfingers 7.12502
rthumb -19.178 -38.6563
lclavicle 3.83654e-014 -1.59028e-015
lhumerus -16.3298 24.6874 24.4764
lradius 137.354
lwrist -36.2077
lhand -46.0216 70.3046
lfingers 7.12502
lthumb -18.7664 -99.4194
rfemur 6.48879 42.4207 41.2549
rtibia -9.6687
rfoot -52.1034 -40.4378
rtoes 27.1004
lfemur -11.9532 -20.2867 -2.57353
ltibia 13.6293
lfoot -20.6182 18.8228
ltoes -67.9324
173
root -22.0908 15.8211 6.42389 -172.404 -18.5183 -174.367
lowerback 7.03073 0.718702 2.1005
upperback -8.78241 1.1323 4.99405
thorax -13.6613 0.362422 4.20838
lowerneck -10.2648 -2.5436 -4.08661
upperneck 27.2619 -6.72667 7.25376
head 10.8302 -3.38196 2.34783
rclavicle -1.86858e-014 4.05521e-014
rhumerus -26.8713 -24.353 -4.15675
rradius 130.941
rwrist 14.2328
rhand -46.6766 -10.0061
rfingers 7.12502
rthumb -19.3963 -39.0587
lclavicle -1.86858e-014 4.05521e-014
lhumerus -15.9611 24.605 24.6341
lradius 137.416
lwrist -36.2687
lhand -46.0744 70.17
lfingers 7.12502
lthumb -18.8172 -99.2799
rfemur 6.41238 42.3669 41.2454
rtibia -9.72984
rfoot -52.1036 -40.3542
rtoes 27.1012
lfemur -12.0798 -20.1965 -2.48694
ltibia 13.6783
lfoot -20.391 18.9157
ltoes -68.1608
174
root -22.0861 15.8297 6.43694 -172.362 -18.5231 -174.364
lowerback 7.23491 0.844582 2.25636
upperback -8.74064 1.3399 4.92162
thorax -13.7462 0.445841 4.00058
lowerneck -10.8315 -2.77045 -3.93681
upperneck 27.2286 -6.94567 7.03916
head 10.934 -3.45258 2.20817
rclavicle 3.51849e-014 5.80451e-014
rhumerus -27.0913 -24.4117 -4.13087
rradius 130.93
rwrist 14.3847
rhand -46.8305 -10.1785
rfingers 7.12502
rthumb -19.5443 -39.2162
lclavicle 3.51849e-014 5.80451e-014
lhumerus -15.6637 24.5713 24.7628
lradius 137.453
lwrist -36.2927
lhand -46.085 70.0289
lfingers 7.12502
lthumb -18.8275 -99.1377
rfemur 6.31883 42.309 41.1999
rtibia -9.8051
rfoot -52.0706 -40.2979
rtoes 27.0518
lfemur -12.2401 -20.1702 -2.42793
ltibia 13.7325
lfoot -20.2835 18.9586
ltoes -68.2372
175
root -22.0799 15.839 6.45184 -172.288 -18.5411 -174.409
lowerback 7.46012 0.955039 2.34224
upperback -8.7142 1.51957 4.86899
thorax -13.8627 0.523658 3.86006
lowerneck -11.3811 -3.01563 -3.98925
upperneck 27.1305 -7.17785 6.9693
head 11.0229 -3.53304 2.15318
rclavicle 7.35503e-015 -1.51076e-014
rhumerus -27.2428 -24.4625 -4.12187
rradius 130.88
rwrist 14.5066
rhand -46.8934 -10.1014
rfingers 7.12502
rthumb -19.6048 -39.1329
lclavicle 7.35503e-015 -1.51076e-014
lhumerus -15.4596 24.6069 24.8354
lradius 137.462
lwrist -36.2686
lhand -46.0609 69.8878
lfingers 7.12502
lthumb -18.8043 -98.9988
rfemur 6.19588 42.2446 41.1001
rtibia -9.88811
rfoot -51.9893 -40.2811
rtoes 26.9591
lfemur -12.4452 -20.198 -2.40632
ltibia 13.795
lfoot -20.2587 18.9799
ltoes -68.1498
176
root -22.0727 15.8484 6.46782 -172.173 -18.5786 -174.496
lowerback 7.67919 1.0354 2.35719
upperback -8.70554 1.6489 4.84984
thorax -13.9972 0.585528 3.8071
lowerneck -11.8432 -3.25395 -4.32215
upperneck 26.9458 -7.3998 7.14489
head 11.0817 -3.61271 2.23727
rclavicle -4.36332e-014 -3.89618e-014
rhumerus -27.2825 -24.4991 -4.11264
rradius 130.795
rwrist 14.5673
rhand -46.8676 -9.88146
rfingers 7.12502
rthumb -19.58 -38.9155
lclavicle -4.36332e-014 -3.89618e-014
lhumerus -15.3881 24.7266 24.8334
lradius 137.442
lwrist -36.1916
lhand -46.0328 69.7288
lfingers 7.12502
lthumb -18.7772 -98.8425
rfemur 6.03696 42.1697 40.945
rtibia -9.97666
rfoot -51.8569 -40.3027
rtoes 26.8841
lfemur -12.7022 -20.2557 -2.41629
ltibia 13.8623
lfoot -20.2478 19.015
ltoes -68.0588
